<?xml version="1.0" encoding="utf-8"?>
<!-- Generator: Adobe Illustrator 16.0.0, SVG Export Plug-In . SVG Version: 6.00 Build 0)  -->
<!DOCTYPE svg PUBLIC "-//W3C//DTD SVG 1.1//EN" "http://www.w3.org/Graphics/SVG/1.1/DTD/svg11.dtd">
<svg version="1.1" id="Layer_1" xmlns="http://www.w3.org/2000/svg" xmlns:xlink="http://www.w3.org/1999/xlink" x="0px" y="0px"
	 width="739px" height="148px" viewBox="-4.5 19.5 739 148" enable-background="new -4.5 19.5 739 148" xml:space="preserve">
<path fill="#fff" d="M195.068,82.389c0-6.136-1.442-10.624-4.323-13.457c-2.881-2.833-7.16-4.253-12.83-4.253
	c-3.721,0-7.112,0.257-10.18,0.764c-3.068,0.514-5.813,1.141-8.228,1.882c-0.466-0.836-0.859-2.041-1.186-3.622
	s-0.488-3.068-0.488-4.462c2.418-0.745,5.391-1.373,8.925-1.882c3.534-0.514,7.16-0.767,10.877-0.767
	c9.017,0,15.71,1.974,20.081,5.927c4.371,3.952,6.558,10.158,6.558,18.616v46.999c-3.255,0.652-7.208,1.299-11.854,1.951
	c-4.649,0.65-9.064,0.977-13.248,0.977c-8.646,0-15.457-1.721-20.429-5.16c-4.977-3.441-7.461-9.016-7.461-16.733
	c0-3.718,0.719-7.046,2.162-9.974c1.442-2.925,3.442-5.387,5.997-7.391c2.558-1.996,5.625-3.508,9.207-4.532
	c3.578-1.023,7.505-1.534,11.784-1.534c3.347,0,6.228,0.117,8.649,0.349c2.415,0.231,4.415,0.444,5.993,0.627v-4.323H195.068z
	 M195.068,94.8c-1.582-0.183-3.556-0.393-5.927-0.627c-2.371-0.228-4.627-0.345-6.763-0.345c-6.973,0-12.367,1.299-16.176,3.901
	c-3.816,2.602-5.721,6.322-5.721,11.156c0,3.067,0.58,5.533,1.747,7.395c1.16,1.86,2.671,3.273,4.532,4.253
	c1.857,0.972,3.904,1.626,6.136,1.944c2.231,0.334,4.462,0.496,6.693,0.496c2.881,0,5.582-0.14,8.088-0.418
	c2.51-0.279,4.972-0.654,7.391-1.119V94.8z"/>
<path fill="#fff" d="M212.506,58.264c0.558-0.092,1.255-0.162,2.092-0.213c0.837-0.044,1.53-0.07,2.092-0.07
	s1.255,0.026,2.092,0.07c0.84,0.048,1.534,0.121,2.095,0.213l0.837,9.762c1.952-2.98,4.763-5.626,8.437-7.953
	c3.67-2.327,8.437-3.486,14.293-3.486c4.367,0,8.363,0.679,11.993,2.022c3.626,1.35,6.716,3.464,9.273,6.345
	c2.554,2.884,4.554,6.51,5.997,10.881c1.442,4.371,2.161,9.622,2.161,15.758s-0.84,11.644-2.51,16.528
	c-1.677,4.881-4.118,9.017-7.325,12.411c-3.208,3.391-7.16,5.993-11.854,7.806c-4.697,1.812-10.062,2.719-16.106,2.719
	c-2.235,0-4.653-0.188-7.255-0.554c-2.602-0.378-4.973-0.933-7.112-1.677v33.471c-0.558,0.092-1.347,0.162-2.371,0.213
	c-1.021,0.048-1.765,0.07-2.228,0.07c-0.558,0-1.329-0.022-2.305-0.07c-0.976-0.051-1.739-0.117-2.297-0.213V58.264L212.506,58.264z
	 M221.71,120.319c2.14,0.837,4.345,1.46,6.624,1.886c2.279,0.415,5.321,0.628,9.138,0.628c3.625,0,7.064-0.583,10.319-1.747
	c3.255-1.163,6.088-2.994,8.506-5.508c2.415-2.51,4.323-5.695,5.717-9.557c1.395-3.856,2.092-8.48,2.092-13.875
	c0-8.554-1.604-15.248-4.811-20.084c-3.208-4.833-8.393-7.251-15.549-7.251c-2.228,0-4.649,0.375-7.251,1.119
	c-2.602,0.745-4.999,2.022-7.182,3.832c-2.188,1.816-4,4.187-5.439,7.115c-1.442,2.925-2.161,6.624-2.161,11.086v32.356H221.71z"/>
<path fill="#fff" d="M281.956,58.264c0.562-0.092,1.259-0.162,2.095-0.213c0.837-0.044,1.53-0.07,2.092-0.07
	c0.558,0,1.255,0.026,2.092,0.07c0.836,0.048,1.53,0.121,2.092,0.213l0.836,9.762c1.953-2.98,4.764-5.626,8.44-7.953
	c3.67-2.327,8.437-3.486,14.294-3.486c4.367,0,8.363,0.679,11.989,2.022c3.629,1.35,6.719,3.464,9.273,6.345
	c2.558,2.884,4.558,6.51,5.996,10.881c1.442,4.371,2.162,9.622,2.162,15.758s-0.837,11.644-2.51,16.528
	c-1.673,4.881-4.117,9.017-7.325,12.411c-3.204,3.391-7.156,5.993-11.85,7.806c-4.697,1.812-10.066,2.719-16.106,2.719
	c-2.235,0-4.653-0.188-7.255-0.554c-2.602-0.378-4.973-0.933-7.112-1.677v33.471c-0.554,0.092-1.347,0.162-2.371,0.213
	c-1.024,0.048-1.769,0.07-2.231,0.07c-0.558,0-1.325-0.022-2.305-0.07c-0.976-0.051-1.739-0.117-2.301-0.213V58.264H281.956z
	 M291.16,120.319c2.14,0.837,4.345,1.46,6.624,1.886c2.279,0.415,5.321,0.628,9.134,0.628c3.625,0,7.064-0.583,10.319-1.747
	c3.251-1.159,6.088-2.994,8.506-5.508c2.415-2.51,4.323-5.695,5.721-9.557c1.391-3.856,2.092-8.48,2.092-13.875
	c0-8.554-1.607-15.248-4.815-20.084c-3.207-4.833-8.393-7.251-15.548-7.251c-2.231,0-4.65,0.375-7.251,1.119
	c-2.605,0.745-4.998,2.022-7.186,3.832c-2.184,1.816-3.996,4.187-5.438,7.115c-1.446,2.925-2.162,6.624-2.162,11.086v32.356H291.16z
	"/>
<path fill="#fff" d="M349.457,119.625c2.044,0.838,4.693,1.553,7.945,2.158c3.255,0.609,6.375,0.91,9.351,0.91
	c5.578,0,9.993-1.232,13.244-3.699c3.255-2.462,4.885-5.508,4.885-9.134c0-2.51-0.488-4.576-1.464-6.202
	c-0.976-1.625-2.279-2.998-3.905-4.117c-1.622-1.112-3.46-2.018-5.508-2.715c-2.044-0.697-4.139-1.417-6.275-2.162
	c-2.327-0.745-4.624-1.578-6.903-2.51c-2.279-0.929-4.297-2.114-6.066-3.556c-1.769-1.442-3.182-3.185-4.253-5.229
	c-1.071-2.047-1.604-4.605-1.604-7.669c0-5.666,2.062-10.271,6.202-13.806c4.14-3.53,10.532-5.299,19.178-5.299
	c3.625,0,7.134,0.326,10.524,0.976c3.395,0.653,6.022,1.35,7.883,2.091c-0.466,2.697-1.119,5.347-1.952,7.953
	c-1.953-0.653-4.44-1.299-7.457-1.953c-3.027-0.649-6.165-0.976-9.417-0.976c-5.67,0-9.695,0.999-12.062,2.999
	c-2.371,2-3.556,4.627-3.556,7.879c0,1.765,0.393,3.281,1.185,4.532c0.789,1.255,1.861,2.323,3.211,3.211
	c1.347,0.88,2.884,1.647,4.602,2.297c1.717,0.653,3.556,1.259,5.504,1.813c2.514,0.837,5.042,1.747,7.604,2.719
	c2.554,0.976,4.881,2.253,6.973,3.838c2.084,1.582,3.813,3.578,5.156,5.997c1.347,2.414,2.026,5.435,2.026,9.064
	c0,3.347-0.679,6.393-2.026,9.134c-1.343,2.741-3.229,5.067-5.647,6.972c-2.418,1.905-5.299,3.369-8.642,4.386
	c-3.351,1.028-7.024,1.538-11.017,1.538c-4.466,0-8.44-0.279-11.927-0.837c-3.482-0.554-6.297-1.3-8.433-2.231
	C347.365,125.2,348.246,122.407,349.457,119.625"/>
<path fill="#fff" d="M401.758,26.884c0.551-0.092,1.321-0.158,2.297-0.209c0.977-0.048,1.744-0.07,2.305-0.07
	c0.463,0,1.207,0.022,2.231,0.07c1.017,0.048,1.81,0.117,2.37,0.209v41.281c1.953-2.976,4.76-5.647,8.438-8.018
	c3.673-2.371,8.437-3.556,14.293-3.556c4.371,0,8.367,0.679,11.997,2.022c3.622,1.351,6.712,3.464,9.273,6.345
	c2.554,2.884,4.554,6.51,5.996,10.88s2.161,9.622,2.161,15.758c0,12.363-3.398,22.033-10.172,29.005
	c-6.793,6.973-16.599,10.459-29.436,10.459c-4.184,0-8.224-0.396-12.132-1.182c-3.897-0.793-7.112-1.651-9.618-2.58V26.884H401.758z
	 M410.961,120.877c2.137,0.741,4.393,1.281,6.764,1.6c2.371,0.334,4.903,0.496,7.601,0.496c3.717,0,7.27-0.605,10.664-1.816
	c3.395-1.207,6.366-3.064,8.928-5.578c2.559-2.51,4.605-5.695,6.136-9.557c1.538-3.856,2.302-8.48,2.302-13.875
	c0-8.459-1.607-15.108-4.812-19.945c-3.207-4.829-8.396-7.255-15.545-7.255c-2.231,0-4.657,0.375-7.255,1.119
	c-2.605,0.745-4.995,2-7.186,3.762c-2.187,1.769-3.996,4.117-5.435,7.046c-1.445,2.925-2.162,6.624-2.162,11.086V120.877z"/>
<path fill="#fff" d="M471.351,58.264c0.741-0.092,1.46-0.165,2.157-0.213c0.697-0.044,1.373-0.07,2.022-0.07
	c0.745,0,1.442,0.026,2.092,0.07c0.649,0.048,1.347,0.121,2.092,0.213c0.19,1.67,0.326,3.651,0.418,5.923
	c0.088,2.279,0.14,4.349,0.14,6.206c1.86-3.442,4.466-6.345,7.81-8.715c3.347-2.371,7.758-3.552,13.247-3.552h1.461
	c0.514,0,1.094,0.047,1.747,0.139c0.278,1.578,0.414,3.064,0.414,4.459c0,1.49-0.136,2.928-0.414,4.323
	c-0.745-0.092-1.325-0.14-1.747-0.14h-1.321c-6.326,0-11.391,2-15.204,6c-3.816,3.997-5.717,10.643-5.717,19.941v36.539
	c-0.558,0.092-1.325,0.166-2.305,0.213c-0.977,0.045-1.743,0.074-2.301,0.074c-0.466,0-1.207-0.029-2.228-0.074
	c-1.024-0.047-1.816-0.117-2.371-0.213V58.264H471.351z"/>
<path fill="#fff" d="M535.357,131.057c-5.295,0-9.948-0.954-13.941-2.858c-4-1.905-7.324-4.532-9.974-7.876
	c-2.653-3.346-4.628-7.295-5.927-11.849c-1.303-4.558-1.952-9.439-1.952-14.646c0-5.208,0.649-10.088,1.952-14.642
	c1.299-4.554,3.277-8.507,5.927-11.857c2.649-3.343,5.974-5.971,9.974-7.875c3.993-1.904,8.643-2.858,13.941-2.858
	c5.3,0,9.923,0.954,13.876,2.858c3.952,1.905,7.255,4.532,9.904,7.875c2.649,3.35,4.646,7.303,5.992,11.857
	c1.347,4.558,2.026,9.435,2.026,14.642c0,5.204-0.68,10.088-2.026,14.646c-1.347,4.554-3.343,8.503-5.992,11.849
	c-2.653,3.344-5.952,5.975-9.904,7.876C545.281,130.103,540.657,131.057,535.357,131.057 M535.357,122.973
	c7.438,0,12.995-2.602,16.668-7.81c3.674-5.207,5.505-12.319,5.505-21.339c0-9.017-1.831-16.128-5.505-21.335
	c-3.673-5.208-9.229-7.81-16.668-7.81s-12.99,2.602-16.66,7.81c-3.677,5.207-5.512,12.319-5.512,21.335
	c0,9.02,1.835,16.132,5.512,21.339C522.367,120.371,527.916,122.973,535.357,122.973"/>
<path fill="#fff" d="M574.973,26.884c0.558-0.092,1.321-0.158,2.301-0.209c0.969-0.048,1.735-0.07,2.297-0.07
	c0.467,0,1.208,0.022,2.231,0.07c1.021,0.048,1.81,0.117,2.371,0.209v102.499c-0.559,0.092-1.348,0.166-2.371,0.213
	c-1.023,0.045-1.765,0.074-2.231,0.074c-0.558,0-1.324-0.029-2.297-0.074c-0.979-0.047-1.743-0.117-2.301-0.213V26.884z
	 M590.029,92.705l25.52-34.44c1.486-0.283,3.115-0.422,4.881-0.422c2.047,0,3.996,0.143,5.856,0.422l-25.38,33.468l29.985,37.651
	c-1.673,0.283-3.347,0.419-5.021,0.419c-2.047,0-4.044-0.136-6-0.419L590.029,92.705z"/>
<path fill="#fff" d="M637.585,95.215c0,9.486,2.184,16.455,6.555,20.921c4.367,4.462,10.925,6.693,19.658,6.693
	c3.538,0,6.808-0.304,9.835-0.909c3.017-0.605,5.971-1.414,8.855-2.441c0.466,1.027,0.84,2.279,1.119,3.766
	c0.275,1.486,0.462,2.836,0.554,4.048c-2.697,1.207-5.86,2.136-9.482,2.788c-3.626,0.65-7.578,0.977-11.85,0.977
	c-6.143,0-11.416-0.906-15.835-2.719c-4.411-1.812-8.036-4.346-10.873-7.597c-2.837-3.255-4.929-7.138-6.275-11.644
	c-1.351-4.511-2.025-9.461-2.025-14.855c0-5.208,0.631-10.088,1.886-14.642c1.259-4.554,3.16-8.554,5.718-11.997
	c2.558-3.438,5.835-6.136,9.835-8.088c3.992-1.952,8.789-2.929,14.359-2.929c4.653,0,8.793,0.793,12.415,2.371
	c3.625,1.582,6.668,3.791,9.134,6.624c2.466,2.837,4.326,6.231,5.581,10.18c1.256,3.952,1.883,8.253,1.883,12.899
	c0,0.84-0.025,1.908-0.069,3.211c-0.052,1.303-0.118,2.418-0.213,3.347h-50.764V95.215z M679.424,87.545
	c0-2.881-0.374-5.717-1.119-8.506c-0.741-2.789-1.908-5.229-3.482-7.325c-1.582-2.088-3.626-3.787-6.136-5.09
	c-2.514-1.299-5.534-1.953-9.072-1.953c-6.502,0-11.57,2-15.199,5.997c-3.622,3.996-5.81,9.622-6.555,16.874h41.563V87.545z"/>
<path fill="#fff" d="M696.158,58.264c0.741-0.092,1.46-0.165,2.161-0.213c0.697-0.044,1.369-0.07,2.022-0.07
	c0.74,0,1.441,0.026,2.091,0.07c0.65,0.048,1.348,0.121,2.092,0.213c0.188,1.67,0.327,3.651,0.415,5.923
	c0.096,2.279,0.144,4.349,0.144,6.206c1.86-3.442,4.466-6.345,7.809-8.715c3.347-2.371,7.762-3.552,13.248-3.552h1.46
	c0.511,0,1.098,0.047,1.743,0.139c0.283,1.578,0.423,3.064,0.423,4.459c0,1.49-0.14,2.928-0.423,4.323
	c-0.744-0.092-1.317-0.14-1.743-0.14h-1.32c-6.323,0-11.392,2-15.204,6c-3.812,3.997-5.718,10.643-5.718,19.941v36.539
	c-0.558,0.092-1.324,0.166-2.301,0.213c-0.979,0.045-1.743,0.074-2.301,0.074c-0.47,0-1.211-0.029-2.231-0.074
	c-1.027-0.047-1.812-0.117-2.37-0.213V58.264H696.158z"/>
<path fill="#fff" d="M67.174,94.874c-1.457-0.595-3.772-3.189-7.504-18.73c-2.062-8.58-4.03-17.339-7.74-23.736
	c-3.894-6.712-9.541-10.547-18.572-8.565c-8.899,1.952-14.062,10.125-15.71,18.69c-1.553,8.037,0.003,16.345,4.194,20.767
	c7.941,8.389,20.411,14.936,33.468,14.936h28.312c0,0,7.927-1.09,16.98-4.084c9.299-3.075,20.114-8.271,25.391-16.782
	c11.772-19.001-22.422-3.787-30.723,2.143C87.351,85.167,79.6,90.734,78.246,91.685C75.574,93.552,72.283,96.95,67.174,94.874"/>
<path fill="#fff" d="M78.796,105.09H53.17c0,0-18.88,0.004-38.792,9.799c-9.31,4.583-13.567,9.971-14.271,14.514
	c-0.671,4.341,1.897,7.978,6.48,9.607c8.936,3.174,19.152-0.367,26.943-10.235c4.206-5.329,10.015-10.399,15.589-14.286
	c5.784-4.033,11.156-6.68,13.963-6.929c5.629-0.487,9.369-0.487,11.475,3.13c2.041,3.512,3.545,16.07,3.545,16.07
	c-0.228,4.381,18.738,4.524,22.136-8.052C103.78,105.586,78.796,105.09,78.796,105.09"/>
</svg>
